{
  "accessors": [
    {
      "bufferView": 2,
      "componentType": 5126,
      "count": 7665,
      "max": [
        37.029399871826172,
        22.239500045776367,
        64.155502319335938
      ],
      "min": [
        -37.234600067138672,
        -7.9264001846313477,
        -0.063299998641014099
      ],
      "type": "VEC3"
    },
    {
      "bufferView": 2,
      "byteOffset": 91980,
      "componentType": 5126,
      "count": 7665,
      "max": [
        0.99967199563980103,
        0.99976259469985962,
        0.99999856948852539
      ],
      "min": [
        -0.99967199563980103,
        -0.99982327222824097,
        -0.99999487400054932
      ],
      "type": "VEC3"
    },
    {
      "bufferView": 3,
      "componentType": 5126,
      "count": 7665,
      "max": [
        0.9998440146446228,
        0.999897301197052,
        0.99903565645217896,
        1
      ],
      "min": [
        -1,
        -0.99989306926727295,
        -0.99960505962371826,
        -1
      ],
      "type": "VEC4"
    },
    {
      "bufferView": 1,
      "componentType": 5126,
      "count": 7665,
      "max": [
        0.99800002574920654,
        0.99589997529983521
      ],
      "min": [
        0.0031000000890344381,
        0.0046000001020729542
      ],
      "type": "VEC2"
    },
    {
      "bufferView": 0,
      "componentType": 5125,
      "count": 36210,
      "max": [
        7664
      ],
      "min": [
        0
      ],
      "type": "SCALAR"
    }
  ],
  "asset": {
    "extras": {
      "author": "vonlogger.md (https://sketchfab.com/vonlogger.md)",
      "license": "CC-BY-4.0 (http://creativecommons.org/licenses/by/4.0/)",
      "source": "https://sketchfab.com/3d-models/scene-girl-60081aed7fba4320a665e919c2613b11",
      "title": "Scene girl"
    },
    "generator": "Sketchfab-5.80.0",
    "version": "2.0"
  },
  "bufferViews": [
    {
      "buffer": 0,
      "byteLength": 144840,
      "byteOffset": 0,
      "name": "floatBufferViews",
      "target": 34963
    },
    {
      "buffer": 0,
      "byteLength": 61320,
      "byteOffset": 144840,
      "byteStride": 8,
      "name": "floatBufferViews",
      "target": 34962
    },
    {
      "buffer": 0,
      "byteLength": 183960,
      "byteOffset": 206160,
      "byteStride": 12,
      "name": "floatBufferViews",
      "target": 34962
    },
    {
      "buffer": 0,
      "byteLength": 122640,
      "byteOffset": 390120,
      "byteStride": 16,
      "name": "floatBufferViews",
      "target": 34962
    }
  ],
  "buffers": [
    {
      "byteLength": 512760,
      "uri": "scene.bin"
    }
  ],
  "images": [
    {
      "uri": "textures/DefaultMaterial_baseColor.png"
    }
  ],
  "materials": [
    {
      "doubleSided": true,
      "emissiveFactor": [
        0,
        0,
        0
      ],
      "emissiveTexture": {
        "index": 0,
        "texCoord": 0
      },
      "name": "DefaultMaterial",
      "pbrMetallicRoughness": {
        "baseColorFactor": [
          1,
          1,
          1,
          1
        ],
        "baseColorTexture": {
          "index": 0,
          "texCoord": 0
        },
        "metallicFactor": 0,
        "roughnessFactor": 1
      }
    }
  ],
  "meshes": [
    {
      "primitives": [
        {
          "attributes": {
            "NORMAL": 1,
            "POSITION": 0,
            "TANGENT": 2,
            "TEXCOORD_0": 3
          },
          "indices": 4,
          "material": 0,
          "mode": 4
        }
      ]
    }
  ],
  "nodes": [
    {
      "children": [
        1
      ],
      "name": "RootNode (gltf orientation matrix)",
      "rotation": [
        -0.70710678118654746,
        -0,
        -0,
        0.70710678118654757
      ]
    },
    {
      "children": [
        2
      ],
      "name": "RootNode (model correction matrix)"
    },
    {
      "children": [
        3
      ],
      "name": "High Command Katarina.obj.cleaner.materialmerger.gles"
    },
    {
      "mesh": 0,
      "name": ""
    }
  ],
  "samplers": [
    {
      "magFilter": 9729,
      "minFilter": 9987,
      "wrapS": 10497,
      "wrapT": 10497
    }
  ],
  "scene": 0,
  "scenes": [
    {
      "name": "OSG_Scene",
      "nodes": [
        0
      ]
    }
  ],
  "textures": [
    {
      "sampler": 0,
      "source": 0
    }
  ]
}

